HIERARCHY
ROOT hip
{
	OFFSET 0.000000 103.560692 0.219151
	CHANNELS 6 Xposition Yposition Zposition Zrotation Xrotation Yrotation
	JOINT pelvis
	{
		OFFSET 0.000000 1.955040 1.591925
		CHANNELS 3 Zrotation Xrotation Yrotation
		JOINT lThigh
		{
			OFFSET 8.341582 -7.629402 -0.646910
			CHANNELS 3 Zrotation Xrotation Yrotation
			JOINT lShin
			{
				OFFSET 2.185763 -45.093132 -0.705710
				CHANNELS 3 Zrotation Xrotation Yrotation
				JOINT lFoot
				{
					OFFSET 0.730976 -46.379768 -2.264282
					CHANNELS 3 Zrotation Xrotation Yrotation
					JOINT lToe
					{
						OFFSET 2.797621 -4.200020 10.742415
						CHANNELS 3 Zrotation Xrotation Yrotation
						JOINT lBigToe
						{
							OFFSET -2.433708 -0.269072 1.841711
							CHANNELS 3 Zrotation Xrotation Yrotation
							End Site
							{
								OFFSET -10.527346 -33.657166 -1.340707
							}
						}
					}
				}
			}
		}
		JOINT rThigh
		{
			OFFSET -8.341582 -7.629402 -0.646910
			CHANNELS 3 Zrotation Xrotation Yrotation
			JOINT rShin
			{
				OFFSET -2.185763 -45.093132 -0.705710
				CHANNELS 3 Zrotation Xrotation Yrotation
				JOINT rFoot
				{
					OFFSET -0.730976 -46.379768 -2.264282
					CHANNELS 3 Zrotation Xrotation Yrotation
					JOINT rToe
					{
						OFFSET -2.797621 -4.200019 10.742415
						CHANNELS 3 Zrotation Xrotation Yrotation
						JOINT rBigToe
						{
							OFFSET 2.433708 -0.269072 1.841711
							CHANNELS 3 Zrotation Xrotation Yrotation
							End Site
							{
								OFFSET 0.000000 24.298409 -0.425647
							}
						}
					}
				}
			}
		}
	}
	JOINT abdomen
	{
		OFFSET 0.000000 1.841293 -3.551421
		CHANNELS 3 Zrotation Xrotation Yrotation
		JOINT abdomen2
		{
			OFFSET 0.000000 5.439911 3.419600
			CHANNELS 3 Zrotation Xrotation Yrotation
			JOINT chest
			{
				OFFSET 0.000000 14.715073 -2.918270
				CHANNELS 3 Zrotation Xrotation Yrotation
				JOINT neck
				{
					OFFSET 0.000000 26.294655 -1.248052
					CHANNELS 3 Zrotation Xrotation Yrotation
					JOINT head
					{
						OFFSET 0.000000 8.807068 1.063695
						CHANNELS 3 Zrotation Xrotation Yrotation
						JOINT rEye
						{
							OFFSET -3.030866 6.632080 7.702687
							CHANNELS 3 Zrotation Xrotation Yrotation
							End Site
							{
								OFFSET 2.969555 -11.022598 8.626689
							}
						}
						JOINT lEye
						{
							OFFSET 3.030866 6.632080 7.702687
							CHANNELS 3 Zrotation Xrotation Yrotation
							End Site
							{
								OFFSET 0.000000 -15.881760 10.104412
							}
						}
						JOINT upperJaw
						{
							OFFSET 0.000000 1.922699 2.891887
							CHANNELS 3 Zrotation Xrotation Yrotation
							End Site
							{
								OFFSET 0.000000 -19.386169 10.230839
							}
						}
						JOINT lowerJaw
						{
							OFFSET 0.000000 1.857620 2.686640
							CHANNELS 3 Zrotation Xrotation Yrotation
							JOINT tongueBase
							{
								OFFSET 0.000000 -3.019135 2.746916
								CHANNELS 3 Zrotation Xrotation Yrotation
								JOINT tongue01
								{
									OFFSET 0.000000 0.664124 0.223355
									CHANNELS 3 Zrotation Xrotation Yrotation
									JOINT tongue02
									{
										OFFSET 0.000000 0.339737 0.715627
										CHANNELS 3 Zrotation Xrotation Yrotation
										JOINT tongue03
										{
											OFFSET 0.000000 0.123444 0.730634
											CHANNELS 3 Zrotation Xrotation Yrotation
											JOINT tongue04
											{
												OFFSET 0.000000 0.017212 0.737415
												CHANNELS 3 Zrotation Xrotation Yrotation
												JOINT tongue05
												{
													OFFSET 0.000000 -0.021011 0.632440
													CHANNELS 3 Zrotation Xrotation Yrotation
													JOINT tongueTip
													{
														OFFSET 0.000000 -0.014404 0.601796
														CHANNELS 3 Zrotation Xrotation Yrotation
														End Site
														{
															OFFSET -14.139406 -2.625778 0.472826
														}
													}
												}
											}
										}
									}
								}
							}
						}
					}
				}
				JOINT rCollar
				{
					OFFSET -2.109295 21.452370 3.768136
					CHANNELS 3 Zrotation Xrotation Yrotation
					JOINT rShldr
					{
						OFFSET -11.491621 -2.568573 -4.940255
						CHANNELS 3 Zrotation Xrotation Yrotation
						JOINT rForeArm
						{
							OFFSET -28.789030 -0.213806 2.098380
							CHANNELS 3 Zrotation Xrotation Yrotation
							JOINT rHand
							{
								OFFSET -22.260895 -0.869583 10.391586
								CHANNELS 3 Zrotation Xrotation Yrotation
								JOINT rThumb1
								{
									OFFSET -0.628075 0.137405 2.362409
									CHANNELS 3 Zrotation Xrotation Yrotation
									JOINT rThumb2
									{
										OFFSET 0.085205 -0.600235 3.826079
										CHANNELS 3 Zrotation Xrotation Yrotation
										JOINT rThumb3
										{
											OFFSET -1.255478 -0.879211 2.439162
											CHANNELS 3 Zrotation Xrotation Yrotation
											End Site
											{
												OFFSET -2.963715 0.538574 4.059553
											}
										}
									}
								}
								JOINT rCarpal1
								{
									OFFSET -0.855530 1.026047 1.621985
									CHANNELS 3 Zrotation Xrotation Yrotation
									JOINT rIndex1
									{
										OFFSET -3.951324 0.390884 3.873290
										CHANNELS 3 Zrotation Xrotation Yrotation
										JOINT rIndex2
										{
											OFFSET -3.071884 -1.259598 2.506104
											CHANNELS 3 Zrotation Xrotation Yrotation
											JOINT rIndex3
											{
												OFFSET -1.394112 -1.446640 1.203302
												CHANNELS 3 Zrotation Xrotation Yrotation
												End Site
												{
													OFFSET -3.392448 -1.258026 0.533405
												}
											}
										}
									}
									JOINT rMid1
									{
										OFFSET -5.422974 0.107910 2.002650
										CHANNELS 3 Zrotation Xrotation Yrotation
										JOINT rMid2
										{
											OFFSET -3.599533 -1.323776 2.090647
											CHANNELS 3 Zrotation Xrotation Yrotation
											JOINT rMid3
											{
												OFFSET -1.360191 -1.598495 1.068055
												CHANNELS 3 Zrotation Xrotation Yrotation
												End Site
												{
													OFFSET -4.087769 -0.460876 0.069540
												}
											}
										}
									}
								}
								JOINT rCarpal2
								{
									OFFSET -1.942749 0.556229 -0.337217
									CHANNELS 3 Zrotation Xrotation Yrotation
									JOINT rRing1
									{
										OFFSET -4.762787 -0.121170 2.349089
										CHANNELS 3 Zrotation Xrotation Yrotation
										JOINT rRing2
										{
											OFFSET -3.380348 -1.337097 1.356700
											CHANNELS 3 Zrotation Xrotation Yrotation
											JOINT rRing3
											{
												OFFSET -1.430290 -1.499649 0.914224
												CHANNELS 3 Zrotation Xrotation Yrotation
												End Site
												{
													OFFSET -1.783272 -2.215851 -0.391895
												}
											}
										}
									}
									JOINT rPinky1
									{
										OFFSET -5.232559 -1.313721 0.336493
										CHANNELS 3 Zrotation Xrotation Yrotation
										JOINT rPinky2
										{
											OFFSET -2.217606 -1.389603 0.800693
											CHANNELS 3 Zrotation Xrotation Yrotation
											JOINT rPinky3
											{
												OFFSET -0.886887 -1.462280 0.774199
												CHANNELS 3 Zrotation Xrotation Yrotation
												End Site
												{
													OFFSET 14.139406 -2.625778 0.472826
												}
											}
										}
									}
								}
							}
						}
					}
				}
				JOINT lCollar
				{
					OFFSET 2.109295 21.452370 3.768136
					CHANNELS 3 Zrotation Xrotation Yrotation
					JOINT lShldr
					{
						OFFSET 11.491621 -2.568573 -4.940255
						CHANNELS 3 Zrotation Xrotation Yrotation
						JOINT lForeArm
						{
							OFFSET 28.789030 -0.213806 2.098380
							CHANNELS 3 Zrotation Xrotation Yrotation
							JOINT lHand
							{
								OFFSET 22.260895 -0.869583 10.391586
								CHANNELS 3 Zrotation Xrotation Yrotation
								JOINT lThumb1
								{
									OFFSET 0.628075 0.137405 2.362409
									CHANNELS 3 Zrotation Xrotation Yrotation
									JOINT lThumb2
									{
										OFFSET -0.085205 -0.600235 3.826079
										CHANNELS 3 Zrotation Xrotation Yrotation
										JOINT lThumb3
										{
											OFFSET 1.255478 -0.879211 2.439162
											CHANNELS 3 Zrotation Xrotation Yrotation
											End Site
											{
												OFFSET 2.963715 0.538574 4.059553
											}
										}
									}
								}
								JOINT lCarpal1
								{
									OFFSET 0.855530 1.026047 1.621985
									CHANNELS 3 Zrotation Xrotation Yrotation
									JOINT lIndex1
									{
										OFFSET 3.951324 0.390884 3.873290
										CHANNELS 3 Zrotation Xrotation Yrotation
										JOINT lIndex2
										{
											OFFSET 3.071884 -1.259598 2.506104
											CHANNELS 3 Zrotation Xrotation Yrotation
											JOINT lIndex3
											{
												OFFSET 1.394112 -1.446640 1.203302
												CHANNELS 3 Zrotation Xrotation Yrotation
												End Site
												{
													OFFSET 3.392448 -1.258026 0.533405
												}
											}
										}
									}
									JOINT lMid1
									{
										OFFSET 5.422974 0.107910 2.002650
										CHANNELS 3 Zrotation Xrotation Yrotation
										JOINT lMid2
										{
											OFFSET 3.599533 -1.323776 2.090647
											CHANNELS 3 Zrotation Xrotation Yrotation
											JOINT lMid3
											{
												OFFSET 1.360191 -1.598495 1.068055
												CHANNELS 3 Zrotation Xrotation Yrotation
												End Site
												{
													OFFSET 4.087769 -0.460876 0.069540
												}
											}
										}
									}
								}
								JOINT lCarpal2
								{
									OFFSET 1.942749 0.556229 -0.337217
									CHANNELS 3 Zrotation Xrotation Yrotation
									JOINT lRing1
									{
										OFFSET 4.762787 -0.121170 2.349089
										CHANNELS 3 Zrotation Xrotation Yrotation
										JOINT lRing2
										{
											OFFSET 3.380348 -1.337097 1.356700
											CHANNELS 3 Zrotation Xrotation Yrotation
											JOINT lRing3
											{
												OFFSET 1.430290 -1.499649 0.914224
												CHANNELS 3 Zrotation Xrotation Yrotation
												End Site
												{
													OFFSET 1.783272 -2.215851 -0.391895
												}
											}
										}
									}
									JOINT lPinky1
									{
										OFFSET 5.232559 -1.313721 0.336493
										CHANNELS 3 Zrotation Xrotation Yrotation
										JOINT lPinky2
										{
											OFFSET 2.217606 -1.389603 0.800693
											CHANNELS 3 Zrotation Xrotation Yrotation
											JOINT lPinky3
											{
												OFFSET 0.886887 -1.462280 0.774199
												CHANNELS 3 Zrotation Xrotation Yrotation
												End Site
												{
													OFFSET -10.295957 -17.050110 17.461308
												}
											}
										}
									}
								}
							}
						}
					}
				}
				JOINT rPectoral
				{
					OFFSET -6.358840 6.360771 6.369920
					CHANNELS 3 Zrotation Xrotation Yrotation
					End Site
					{
						OFFSET 10.295957 -17.050110 17.461308
					}
				}
				JOINT lPectoral
				{
					OFFSET 6.358840 6.360771 6.369920
					CHANNELS 3 Zrotation Xrotation Yrotation
					End Site
					{
						OFFSET 10.295957 -17.050110 17.461308
					}
				}
			}
		}
	}
}
MOTION
Frames:	4
Frame Time:	0.0333333
0.000000 5.825005 0.000000 -7.076411 1.822037 10.011842 0.000000 0.000000 0.000000 3.927254 -6.481154 -4.066961 -0.008351 30.800158 -4.221680 -2.877682 1.645678 -2.230184 19.643820 -41.317394 6.840274 0.000000 0.000000 0.000000 8.516455 -29.627865 1.186779 -0.640717 27.438040 2.421841 11.304621 23.595322 -11.822188 -15.712108 -35.230267 -4.491452 0.000000 0.000000 0.000000 4.955416 1.219620 -5.506456 0.000000 0.000000 0.000000 2.692901 -0.194936 -5.738791 -0.127736 0.519765 -3.094246 1.462070 4.475172 -3.193997 0.000000 0.000000 0.000000 0.000000 0.000000 0.000000 0.000000 0.000000 0.000000 0.000000 0.000000 0.000000 0.000000 0.000000 0.000000 0.000000 0.000000 0.000000 0.000000 0.000000 0.000000 0.000000 0.000000 0.000000 0.000000 0.000000 0.000000 0.000000 0.000000 0.000000 0.000000 0.000000 0.000000 7.501582 -1.169665 -1.180650 68.406158 -1.537563 -21.187653 -13.374764 20.099968 5.096368 -12.919808 -9.060814 -2.533458 1.586877 -1.959949 -4.364126 -0.086357 -0.189240 0.161860 0.000000 0.000000 0.000000 0.000000 0.000000 0.000000 -0.058094 3.937455 -10.292114 27.445833 21.123442 0.586586 6.972381 6.276537 0.356537 0.011301 1.741534 -4.627695 29.647327 16.768978 3.567138 7.117458 4.008407 1.731394 0.000000 0.000000 0.000000 3.495895 -0.558110 5.522613 30.764296 10.683593 9.375948 -1.436347 -0.341312 -0.621073 12.717269 -0.833564 8.361774 31.462574 6.118083 11.629505 11.818012 2.519577 5.549626 -0.668279 -0.927272 -1.762973 -68.110947 20.006153 -4.268804 9.998586 4.416754 -26.207764 9.248571 -6.590211 1.615152 -1.199196 -1.497014 8.144932 0.079971 -0.175215 -0.149887 0.000000 0.000000 0.000000 0.000000 0.000000 0.000000 -8.857172 12.272840 8.641085 -28.961464 22.205256 -0.319818 -28.120228 23.938519 3.122392 -15.629568 10.077700 -2.354407 -26.865549 15.166746 -3.610876 -32.500740 19.362854 -3.679529 0.000000 0.000000 0.000000 -15.149336 4.469491 -5.518847 -32.340305 11.360157 -9.698563 -30.021803 10.585465 -10.763189 -14.882235 -1.112129 -9.990119 -33.069210 6.600417 -12.128142 -18.755224 4.545151 -8.582247 0.043769 -0.002068 -0.128508 0.056023 0.002503 -0.164469 
-0.363764 6.476930 1.301636 -8.326436 1.768054 11.236015 0.000000 0.000000 0.000000 4.726250 -9.330994 -8.355997 0.238584 34.598404 -0.931840 -6.773354 9.993970 -0.202498 22.953638 -45.619480 9.053850 0.000000 0.000000 0.000000 10.332745 -27.556219 2.243823 -0.735464 24.284847 2.564741 11.462392 24.098089 -14.429667 -15.721673 -35.246498 -4.496729 0.000000 0.000000 0.000000 6.400525 0.904749 -7.776364 0.000000 0.000000 0.000000 3.276499 -0.168572 -5.676251 0.213488 0.376364 -3.253570 1.164815 3.846135 -2.729637 0.000000 0.000000 0.000000 0.000000 0.000000 0.000000 0.000000 0.000000 0.000000 0.000000 0.000000 0.000000 0.000000 0.000000 0.000000 0.000000 0.000000 0.000000 0.000000 0.000000 0.000000 0.000000 0.000000 0.000000 0.000000 0.000000 0.000000 0.000000 0.000000 0.000000 0.000000 0.000000 0.000000 7.430133 -1.228070 -1.706276 68.787781 -0.804959 -19.604143 -8.171895 12.545307 3.550886 -13.797918 -9.636414 -2.774998 1.587296 -1.972103 -4.702360 -0.086357 -0.189240 0.161860 0.000000 0.000000 0.000000 0.000000 0.000000 0.000000 0.417776 4.343437 -10.115805 28.060516 21.564409 0.482002 7.517118 6.766652 0.352146 0.559004 2.039070 -4.430584 30.287512 17.135296 3.545637 7.733721 4.367485 1.858801 0.000000 0.000000 0.000000 4.107207 -0.356899 5.669979 31.405586 10.957840 9.509411 -0.778398 -0.187008 -0.335703 13.336274 -0.704651 8.556721 32.116631 6.312660 11.833980 12.456964 2.689587 5.836999 -1.411112 -0.170134 -1.770100 -68.571236 19.108263 -2.981373 10.636933 4.927036 -26.059797 10.741029 -7.606565 1.970373 -1.196970 -1.490175 7.910156 0.079971 -0.175215 -0.149887 0.000000 0.000000 0.000000 0.000000 0.000000 0.000000 -7.694002 11.203979 8.940213 -27.566240 21.210060 -0.566486 -26.854784 23.002554 2.735738 -14.290321 9.231665 -2.061711 -25.434326 14.337143 -3.601844 -31.200209 18.587868 -3.750311 0.000000 0.000000 0.000000 -13.640678 3.906160 -5.247935 -30.890121 10.737289 -9.402382 -28.743029 10.018250 -10.415309 -13.327522 -1.444156 -9.507897 -31.590944 6.156083 -11.669798 -17.465240 4.138855 -8.033738 0.060677 -0.002893 -0.178153 0.056930 0.002543 -0.167130 
-0.832365 6.938668 3.455398 -9.492163 2.253872 11.764248 0.000000 0.000000 0.000000 5.253529 -14.593321 -13.014587 0.874666 44.610649 1.650269 -11.259447 12.419499 2.017354 23.342705 -46.080811 9.325925 0.000000 0.000000 0.000000 12.519882 -26.057816 4.657141 -0.921221 22.286455 2.434939 12.292869 23.531519 -16.937750 -15.731036 -35.262344 -4.501904 0.000000 0.000000 0.000000 7.845022 0.465398 -9.363132 0.000000 0.000000 0.000000 3.647133 -0.211796 -5.632955 0.546573 0.209994 -3.220069 0.737468 3.234433 -2.129030 0.000000 0.000000 0.000000 0.000000 0.000000 0.000000 0.000000 0.000000 0.000000 0.000000 0.000000 0.000000 0.000000 0.000000 0.000000 0.000000 0.000000 0.000000 0.000000 0.000000 0.000000 0.000000 0.000000 0.000000 0.000000 0.000000 0.000000 0.000000 0.000000 0.000000 0.000000 0.000000 0.000000 7.336099 -1.053058 -3.297168 69.218269 0.185574 -17.595743 -3.499777 5.343573 2.479792 -15.022860 -10.428807 -3.125607 1.587725 -1.987259 -5.124018 -0.086357 -0.189240 0.161860 0.000000 0.000000 0.000000 0.000000 0.000000 0.000000 0.961320 4.809932 -9.918041 28.767538 22.067871 0.355616 8.141449 7.327609 0.341345 1.184830 2.381956 -4.208414 31.022053 17.554287 3.515693 8.438546 4.780187 1.999969 0.000000 0.000000 0.000000 4.806344 -0.124647 5.836031 32.139660 11.273537 9.658483 -0.026200 -0.006360 -0.011262 14.044198 -0.554525 8.778133 32.864784 6.538228 12.065382 13.187427 2.888099 6.163647 -2.363189 -0.200558 -1.179842 -69.076408 18.057522 -1.410679 9.830635 4.726181 -24.903099 12.576571 -8.834134 2.441301 -1.194093 -1.481464 7.610781 0.079971 -0.175215 -0.149887 0.000000 0.000000 0.000000 0.000000 0.000000 0.000000 -6.297695 9.931017 9.326309 -25.908779 20.008039 -0.826413 -25.352156 21.866112 2.303505 -12.683363 8.226848 -1.685552 -23.722128 13.341550 -3.562904 -29.643915 17.653463 -3.810603 0.000000 0.000000 0.000000 -11.830134 3.240655 -4.904007 -29.148127 9.999322 -9.026459 -27.202234 9.345949 -9.980517 -11.460136 -1.824679 -8.918187 -29.812632 5.638253 -11.104859 -15.908459 3.666390 -7.361984 0.111530 -0.005464 -0.327482 0.037689 0.001702 -0.110646 
-1.352048 6.472217 5.904804 -10.415998 2.912869 11.092402 0.000000 0.000000 0.000000 6.929456 -19.599897 -14.108748 1.436171 53.551254 2.205345 -14.091535 9.509391 2.317341 14.569330 -33.242867 3.877579 0.000000 0.000000 0.000000 13.905145 -26.593237 4.643258 -0.694918 25.017860 2.621325 12.567433 20.226959 -16.306990 -15.738697 -35.275326 -4.506131 0.000000 0.000000 0.000000 9.025143 0.001061 -9.374258 0.000000 0.000000 0.000000 3.970389 -0.242127 -5.595222 0.709977 0.094940 -2.926850 0.229381 2.764897 -1.479792 0.000000 0.000000 0.000000 0.000000 0.000000 0.000000 0.000000 0.000000 0.000000 0.000000 0.000000 0.000000 0.000000 0.000000 0.000000 0.000000 0.000000 0.000000 0.000000 0.000000 0.000000 0.000000 0.000000 0.000000 0.000000 0.000000 0.000000 0.000000 0.000000 0.000000 0.000000 0.000000 0.000000 7.202285 -1.003766 -6.166646 69.610291 1.315869 -15.338334 -0.633911 0.784095 1.746310 -16.352936 -11.274780 -3.523980 1.588055 -2.003755 -5.583219 -0.086357 -0.189240 0.161860 0.000000 0.000000 0.000000 0.000000 0.000000 0.000000 1.520443 5.292830 -9.718645 29.500341 22.585333 0.217826 8.786032 7.905734 0.323734 1.828863 2.738004 -3.983240 31.781353 17.985806 3.478859 9.164560 5.207416 2.140235 0.000000 0.000000 0.000000 5.526463 0.116916 6.004255 32.896351 11.600921 9.808013 0.748235 0.184302 0.320716 14.773460 -0.396886 9.004430 33.635464 6.773887 12.300918 13.939393 3.097091 6.497790 -3.371554 -0.267164 0.631483 -69.560051 16.954346 0.298087 9.775854 5.375739 -22.884947 14.568270 -10.136205 2.993648 -1.190795 -1.471683 7.273880 0.079971 -0.175215 -0.149887 0.000000 0.000000 0.000000 0.000000 0.000000 0.000000 -4.816001 8.594341 9.767455 -24.173685 18.728445 -1.059360 -23.783577 20.651741 1.884314 -10.979639 7.175268 -1.257659 -21.916075 12.289289 -3.488696 -28.005465 16.662617 -3.845194 0.000000 0.000000 0.000000 -9.910865 2.548524 -4.517514 -27.302721 9.230696 -8.604810 -25.568068 8.646829 -9.501186 -9.479238 -2.206220 -8.280797 -27.926085 5.109358 -10.490020 -14.254737 3.186116 -6.637233 0.203647 -0.010458 -0.598024 -0.021136 -0.000986 0.062054 
